<svg width="40" height="40" viewBox="0 0 100 100" fill="none" xmlns="http://www.w3.org/2000/svg">
  <!-- Top horizontal bar -->
  <rect x="15" y="10" width="70" height="8" fill="#00FFFF"/>

  <!-- Left vertical bar -->
  <rect x="15" y="10" width="8" height="80" fill="#00FFFF"/>

  <!-- Right vertical bar -->
  <rect x="77" y="10" width="8" height="80" fill="#00FFFF"/>

  <!-- Bottom horizontal bar -->
  <rect x="15" y="82" width="70" height="8" fill="#00FFFF"/>

  <!-- Left diagonal (top-left to center) -->
  <polygon points="23,18 31,18 50,50 50,58 42,58" fill="#00FFFF"/>

  <!-- Right diagonal (top-right to center) -->
  <polygon points="77,18 69,18 50,50 50,58 58,58" fill="#00FFFF"/>

  <!-- Left diagonal (bottom-left to center) -->
  <polygon points="23,82 31,82 50,50 50,42 42,42" fill="#00FFFF"/>

  <!-- Right diagonal (bottom-right to center) -->
  <polygon points="77,82 69,82 50,50 50,42 58,42" fill="#00FFFF"/>

  <!-- Center vertical connector -->
  <rect x="46" y="42" width="8" height="16" fill="#00FFFF"/>
</svg>
